<?xml version="1.0" encoding="UTF-8"?>
<svg width="24" height="24" viewBox="0 0 24 24" fill="none" xmlns="http://www.w3.org/2000/svg">
    <path d="M21.53 4.306v15.363q0 .807-.472 1.433-.472.627-1.253.85l-6.888 1.974q-.136.037-.29.055-.156.019-.293.019-.396 0-.72-.105-.321-.106-.656-.292l-4.505-2.544q-.248-.137-.391-.366-.143-.23-.143-.515 0-.434.304-.738.304-.305.739-.305h5.831V4.964l-4.38 1.563q-.533.187-.856.658-.322.472-.322 1.03v8.078q0 .496-.248.912-.25.416-.683.651l-2.072 1.13q-.286.148-.571.148-.497 0-.844-.347-.348-.347-.348-.844V6.563q0-.62.33-1.19.328-.571.874-.881L19.086 2.11q.424-.149.846-.149.497 0 .915.25.417.249.675.687.258.437.258.909z" fill="currentColor"/>
</svg>
