<?xml version="1.0" encoding="UTF-8"?>
<svg width="24" height="24" viewBox="0 0 24 24" fill="none" xmlns="http://www.w3.org/2000/svg">
    <path d="M19.321 6.88c-1.573-1.029-2.085-2.937-2.086-4.88h-3.417v16.864c-.021 1.356-1.137 2.45-2.493 2.47-1.38.02-2.526-1.074-2.546-2.454-.02-1.38 1.074-2.526 2.454-2.546.136-.002.272.008.406.03V12.89a6.914 6.914 0 00-.878-.056c-3.314 0-6 2.686-6 6s2.686 6 6 6c3.314 0 6-2.686 6-6V9.824c1.223.857 2.709 1.315 4.234 1.315V7.721a4.293 4.293 0 01-1.674-.841z" fill="currentColor"/>
</svg>
