<?xml version="1.0" ?><svg fill="#000000" height="24" width="24" viewBox="0 0 24 24" xmlns="http://www.w3.org/2000/svg"><path d="M20.4 3.6C18.2 1.3 15.2 0 12 0 5.5 0 0.1 5.4 0.1 11.9c0 2.1 0.5 4.2 1.6 6L0 24l6.3-1.7c1.7 1 3.7 1.5 5.7 1.5h0c6.5 0 11.8-5.4 11.8-11.9C23.9 8.8 22.7 5.9 20.4 3.6zM12 21.8c-1.8 0-3.5-0.5-5-1.4l-0.4-0.2L2.9 21.4l1.1-4.1L3.8 17c-1-1.6-1.5-3.5-1.5-5.4 0-5.4 4.4-9.7 9.8-9.7 2.6 0 5.1 1 6.9 2.9 1.9 1.9 2.9 4.4 2.9 7 0 5.4-4.4 9.7-9.8 9.7H12zM17.5 14.4c-0.3-0.1-1.7-0.8-2-0.9 -0.3-0.1-0.5-0.1-0.7 0.1 -0.2 0.3-0.8 0.9-0.9 1.1 -0.2 0.2-0.3 0.2-0.6 0.1 -0.3-0.1-1.3-0.5-2.4-1.5 -0.9-0.8-1.5-1.8-1.7-2.1 -0.2-0.3 0-0.5 0.1-0.6s0.3-0.3 0.4-0.5c0.1-0.1 0.2-0.3 0.3-0.4 0.1-0.2 0-0.3 0-0.4C10 9.1 9.4 7.7 9.2 7.1 9 6.5 8.8 6.6 8.6 6.6 8.4 6.5 8.2 6.5 8 6.5c-0.2 0-0.6 0.1-0.9 0.3C6.8 7 6.1 7.7 6.1 9.1c0 1.4 1 2.8 1.2 2.9 0.2 0.2 2.1 3.3 5.2 4.5 0.7 0.3 1.3 0.5 1.7 0.6 0.7 0.2 1.4 0.2 1.9 0.1 0.6-0.1 1.7-0.7 2-1.4 0.3-0.7 0.3-1.3 0.2-1.4C17.9 14.6 17.8 14.5 17.5 14.4z"/></svg>
